<svg width="25" height="20" viewBox="0 0 25 20" fill="none" xmlns="http://www.w3.org/2000/svg">
<path d="M5.95208 4.57807C6.85631 2.34887 9.12119 0.240234 12.5 0.240234C16.1352 0.240234 19.2335 2.71363 19.9128 6.71624C20.8719 6.85981 21.8762 7.22715 22.7031 7.84141C23.7309 8.60486 24.5 9.76817 24.5 11.3215C24.5 12.8276 23.8659 14.0257 22.8336 14.8289C21.8217 15.6162 20.4749 15.9902 19.0625 15.9902H15.5C15.0858 15.9902 14.75 15.6544 14.75 15.2402C14.75 14.826 15.0858 14.4902 15.5 14.4902H19.0625C20.2283 14.4902 21.2252 14.1797 21.9125 13.645C22.5794 13.1261 23 12.3649 23 11.3215C23 10.3253 22.5269 9.57912 21.8086 9.04555C21.0718 8.49823 20.0953 8.19552 19.2129 8.15182C18.8434 8.13352 18.5425 7.84859 18.5041 7.4807C18.1262 3.86527 15.5277 1.74023 12.5 1.74023C9.64101 1.74023 7.81311 3.6263 7.21419 5.49423C7.12259 5.7799 6.86958 5.9835 6.57093 6.01187C3.98645 6.2574 2 7.8485 2 10.2527C2 12.6697 4.08853 14.4902 6.875 14.4902H9.5C9.91421 14.4902 10.25 14.826 10.25 15.2402C10.25 15.6544 9.91421 15.9902 9.5 15.9902H6.875C3.47397 15.9902 0.5 13.697 0.5 10.2527C0.5 6.97712 3.09336 5.02015 5.95208 4.57807Z" fill="url(#paint0_linear_4083_6548)"/>
<path d="M13.0303 6.45991L16.0303 9.45991C16.3232 9.7528 16.3232 10.2277 16.0303 10.5206C15.7374 10.8135 15.2626 10.8135 14.9697 10.5206L13.25 8.80089V19.0099C13.25 19.4241 12.9142 19.7599 12.5 19.7599C12.0858 19.7599 11.75 19.4241 11.75 19.0099V8.80089L10.0303 10.5206C9.73744 10.8135 9.26256 10.8135 8.96967 10.5206C8.67678 10.2277 8.67678 9.7528 8.96967 9.45991L11.9697 6.45991C12.2626 6.16701 12.7374 6.16701 13.0303 6.45991Z" fill="url(#paint1_linear_4083_6548)"/>
<defs>
<linearGradient id="paint0_linear_4083_6548" x1="0.5" y1="10.0001" x2="24.5" y2="10.0001" gradientUnits="userSpaceOnUse">
<stop stop-color="#19B1D2"/>
<stop offset="1" stop-color="#0094FF"/>
</linearGradient>
<linearGradient id="paint1_linear_4083_6548" x1="0.5" y1="10.0001" x2="24.5" y2="10.0001" gradientUnits="userSpaceOnUse">
<stop stop-color="#19B1D2"/>
<stop offset="1" stop-color="#0094FF"/>
</linearGradient>
</defs>
</svg>
